<svg data-v-0dd9719b="" version="1.0" xmlns="http://www.w3.org/2000/svg" xmlns:xlink="http://www.w3.org/1999/xlink" width="100%" height="100%" viewBox="0 0 340.000000 250.000000" preserveAspectRatio="xMidYMid meet" color-interpolation-filters="sRGB" style="margin: auto;"> <rect data-v-0dd9719b="" x="0" y="0" width="100%" height="100%" fill="#fff" fill-opacity="1" class="background"></rect> <rect data-v-0dd9719b="" x="0" y="0" width="100%" height="100%" fill="url(#watermark)" fill-opacity="1" class="watermarklayer"></rect> <g data-v-0dd9719b="" fill="#333" class="icon-text-wrapper icon-svg-group iconsvg" transform="translate(81.49500277638435,74.94381332397461)"><g class="iconsvg-imagesvg" transform="translate(58.50499725341797,0)"><g><rect fill="#333" fill-opacity="0" stroke-width="2" x="0" y="0" width="59.99999999999999" height="68.49236880857524" class="image-rect"></rect> <svg x="0" y="0" width="59.99999999999999" height="68.49236880857524" filtersec="colorsb4278487321" class="image-svg-svg primary" style="overflow: visible;"><svg xmlns="http://www.w3.org/2000/svg" viewBox="-0.02031148411333561 -0.003824889659881592 126.42715454101562 144.32151794433594"><path d="M104.63 23.53c-4.29 2.44-8.34 4.87-12.52 7-.69.36-2.11-.32-3-.83-7.84-4.44-15.68-8.91-23.45-13.49a4.19 4.19 0 0 0-4.83 0q-22.41 13-44.95 25.89a4 4 0 0 0-2.35 4c.07 17.49 0 35 .09 52.45a4.38 4.38 0 0 0 1.86 3.23c15.16 8.87 30.42 17.58 45.61 26.39a3.89 3.89 0 0 0 4.38-.1c15.11-8.76 30.28-17.44 45.36-26.26a4.48 4.48 0 0 0 2-3.18c.18-14.69.2-29.38.24-44.07 0-.81-.16-1.62-.3-3-1.78.95-3.22 1.66-4.6 2.46L66.34 78.05c-3.91 2.25-9.1-.94-9.41-5.47-.24-3.42.94-5.25 4-7C79.75 55 98.47 44.08 117.24 33.27c3.51-2 9.15 1.21 9.15 5.25v67a4.4 4.4 0 0 1-2.54 4.38q-29.41 16.81-58.74 33.78a3.63 3.63 0 0 1-4.11 0Q31.83 126.75 2.54 110A4.43 4.43 0 0 1 0 105.58q.14-33.48 0-67a4.19 4.19 0 0 1 2.4-4.21Q31.6 17.73 60.7.89C62.23 0 63.49-.44 65.28.6 78 8 90.73 15.29 103.46 22.61a14.53 14.53 0 0 1 1.17.92z" fill="#303e8f"></path><path d="M76.5 39.69L58.61 50c-4.83 2.81-9.61 5.64-14.51 8.33a3.51 3.51 0 0 0-2 3.56c.07 6.6.08 13.21 0 19.81a3.76 3.76 0 0 0 2.2 3.75C50.18 88.76 56 92.27 62 95.5a4.56 4.56 0 0 0 3.73-.21c9.72-5.45 19.36-11.06 29-16.61.94-.54 1.92-1 3.24-1.68 0 5 .08 9.5-.08 14a3.43 3.43 0 0 1-1.68 2.24q-15.42 9-31 17.74A3.9 3.9 0 0 1 62 111q-15.8-8.88-31.42-18a4.22 4.22 0 0 1-1.68-3.09q-.16-18 0-36a4.18 4.18 0 0 1 1.66-3.07c10.24-6.06 20.55-12 30.9-17.86a3.44 3.44 0 0 1 2.79-.24c3.93 2.08 7.75 4.37 12.25 6.95z" fill="#fb941c"></path></svg></svg> <!----></g></g> <g transform="translate(0,75.49237060546875)"><g data-gra="path-name" fill-rule="" class="tp-name iconsvg-namesvg"><g transform="scale(1)"><g><path d="M9.32 0L11.86 0Q12.07 0 12.22-0.16 12.38-0.31 12.38-0.52L12.38-0.52 12.38-10.43 21.21-24.34 17.74-24.34 10.78-13.42 3.96-24.34 0.35-24.34 9.32-10.57 9.32 0ZM22.6-11.89Q22.6-8.59 23.87-5.88 25.14-3.16 27.51-1.58 29.87 0 33.04 0L33.04 0Q36.27 0 38.64-1.62 41-3.23 42.24-6.02 43.47-8.8 43.47-12.17L43.47-12.17Q43.47-15.51 42.25-18.27 41.04-21.04 38.69-22.69 36.34-24.34 33.04-24.34L33.04-24.34Q29.66-24.34 27.32-22.69 24.97-21.04 23.79-18.21 22.6-15.37 22.6-11.89L22.6-11.89ZM25.84-11.75Q25.84-15.96 27.51-18.78 29.18-21.6 33.04-21.6L33.04-21.6Q35.54-21.6 37.19-20.29 38.84-18.99 39.47-16.85 40.1-14.71 40.1-12.17L40.1-12.17Q40.1-9.56 39.47-7.41 38.84-5.25 37.19-3.93 35.54-2.61 33.04-2.61L33.04-2.61Q30.6-2.61 28.9-3.86 27.19-5.11 26.52-7.2 25.84-9.29 25.84-11.75L25.84-11.75ZM47.64 0.03L50.08-7.34 60.86-7.34 63.43 0.03 66.77 0.03 57-24.31 53.42-24.31 44.17 0.03 47.64 0.03ZM55.43-21.32L59.92-9.95 50.95-9.95 55.43-21.32ZM72.23 0Q72.44 0 72.59-0.16 72.75-0.31 72.75-0.52L72.75-0.52 72.89-18.85 84.85 0 87.53 0Q87.74 0 87.9-0.16 88.05-0.31 88.05-0.52L88.05-0.52 88.05-24.34 84.51-24.34 84.51-5.36 72.54-24.34 69.34-24.34 69.34 0 72.23 0ZM102.52-12.07L107.87-12.1Q109.68-12.14 113.09-12.14L113.09-12.14 113.09-9.35Q113.09-7.09 111.79-4.85 110.48-2.61 108.19-1.16 105.89 0.28 103.01 0.28L103.01 0.28Q99.56 0.28 97.13-1.5 94.69-3.27 93.46-6.14 92.23-9.01 92.23-12.24L92.23-12.24Q92.23-15.37 93.43-18.12 94.63-20.87 96.99-22.52 99.35-24.17 102.66-24.06L102.66-24.06Q110.07-24.06 112.81-17.04L112.81-17.04 110.1-16.34Q109.2-17.77 108.15-18.88 107.11-20 105.88-20.54 104.64-21.07 102.66-21.07L102.66-21.07Q100.43-21.07 98.8-19.75 97.16-18.43 96.49-16.29 95.81-14.15 95.81-11.75L95.81-11.75Q95.81-9.39 96.49-7.3 97.16-5.22 98.92-3.95 100.68-2.68 103.21-2.68L103.21-2.68Q106.03-2.68 107.86-4.5 109.68-6.33 110.24-9.32L110.24-9.32 102.52-9.32 102.52-12.07ZM145.19 0Q145.4 0 145.55-0.16 145.71-0.31 145.71-0.52L145.71-0.52 145.71-2.75 131.28-2.75 145.29-21.46 145.29-24.34 128.43-24.34 128.43-21.46 141.33-21.46 127.45-2.89 127.45 0 145.19 0ZM164.94-10.43Q164.94-6.57 163.67-4.66 162.4-2.75 159-2.75L159-2.75Q155.55-2.75 154.4-4.73 153.26-6.71 153.26-10.43L153.26-10.43 153.26-24.34 149.88-24.34 149.88-10.43Q149.88-5.29 151.92-2.64 153.95 0 159 0L159 0Q163.9 0 165.93-2.9 167.97-5.81 167.97-10.43L167.97-10.43 167.97-24.34 164.94-24.34 164.94-10.43ZM177.36-24.34L173.91-24.34 173.91 0 176.84 0Q177.04 0 177.2-0.16 177.36-0.31 177.36-0.52L177.36-0.52 177.36-24.34Z" transform="translate(-0.3500000238418579, 24.34000015258789)"></path></g> <!----> <!----> <!----> <!----> <!----> <!----> <!----></g></g> <!----></g></g><defs v-gra="od"></defs></svg>